<?xml version="1.0" standalone="no"?>
<!DOCTYPE svg PUBLIC "-//W3C//DTD SVG 20010904//EN"
 "http://www.w3.org/TR/2001/REC-SVG-20010904/DTD/svg10.dtd">
<svg version="1.0" xmlns="http://www.w3.org/2000/svg"
 width="924.000000pt" height="924.000000pt" viewBox="0 0 924.000000 924.000000"
 preserveAspectRatio="xMidYMid meet">
<metadata>
Created by potrace 1.14, written by Peter Selinger 2001-2017
</metadata>
<g transform="translate(0.000000,924.000000) scale(0.100000,-0.100000)"
fill="#000000" stroke="none">
<path d="M5262 6720 c-12 -5 -26 -20 -31 -32 -4 -13 -8 -944 -7 -2070 1 -1930
2 -2048 18 -2065 12 -11 38 -18 80 -21 53 -3 67 -1 91 18 l27 21 0 2057 c0
1131 -4 2062 -8 2068 -21 32 -116 45 -170 24z"/>
<path d="M3770 6373 c-284 -22 -524 -162 -632 -368 -49 -95 -68 -164 -73 -265
-7 -152 32 -262 133 -372 101 -109 202 -163 580 -314 314 -125 414 -189 469
-302 37 -75 38 -173 3 -245 -87 -182 -436 -290 -735 -228 -130 27 -241 64
-338 111 l-78 39 -79 -159 -79 -158 97 -50 c201 -103 417 -152 671 -152 465 0
768 156 881 451 40 107 54 278 31 394 -48 245 -245 430 -596 559 -406 150
-535 220 -581 319 -78 169 42 342 276 398 77 18 267 15 374 -5 49 -9 140 -33
204 -52 63 -19 117 -32 120 -29 9 9 122 269 122 281 0 17 -208 82 -370 114
-137 28 -296 41 -400 33z"/>
<path d="M1220 5148 l0 -1213 178 1 c97 1 179 2 182 3 3 0 5 195 5 431 l0 430
160 1 c371 1 479 21 658 122 286 161 421 574 307 939 -29 95 -86 184 -171 269
-62 62 -95 85 -180 127 -185 92 -207 95 -706 99 l-433 4 0 -1213z m875 853
c110 -39 194 -110 243 -206 107 -211 25 -486 -176 -593 -91 -48 -129 -54 -359
-56 -187 -2 -213 0 -214 13 -3 32 -5 856 -3 862 2 3 103 4 226 3 198 -2 230
-4 283 -23z"/>
<path d="M6055 6185 l-25 -24 0 -716 0 -715 70 0 70 0 0 455 0 455 915 0 915
0 0 -1005 0 -1005 -915 0 -915 0 0 439 c0 342 -3 440 -12 443 -7 2 -38 3 -68
3 l-55 0 -3 -708 -2 -708 24 -24 25 -25 1006 0 1006 0 24 25 25 24 0 1531 0
1531 -25 24 -24 25 -1006 0 -1006 0 -24 -25z m1943 -260 l2 -150 -915 0 -915
0 0 150 0 150 913 0 912 0 3 -150z m2 -2588 l0 -152 -915 0 -915 0 0 152 0
153 915 0 915 0 0 -153z"/>
<path d="M3625 3162 c1 -87 5 -163 9 -170 8 -14 46 -16 46 -3 0 6 -4 13 -10
16 -6 4 -10 68 -10 161 0 141 -2 154 -18 154 -16 0 -17 -13 -17 -158z"/>
<path d="M2630 3134 l0 -157 70 5 c111 8 152 51 152 160 0 100 -51 148 -159
148 l-63 0 0 -156z m153 100 c75 -75 27 -224 -72 -224 l-41 0 0 125 0 125 44
0 c33 0 49 -6 69 -26z"/>
<path d="M2982 3208 c-82 -22 -98 -177 -23 -218 25 -13 87 -13 112 1 30 15 13
29 -22 17 -50 -17 -109 22 -109 72 0 6 36 10 80 10 90 0 95 6 66 74 -17 40
-56 57 -104 44z m68 -38 c11 -11 20 -29 20 -40 0 -18 -7 -20 -65 -20 -74 0
-83 13 -40 55 29 30 58 32 85 5z"/>
<path d="M3441 3207 c-80 -28 -95 -166 -24 -212 19 -13 39 -16 75 -13 52 5 64
11 54 26 -4 7 -17 6 -36 -1 -25 -9 -36 -9 -58 3 -28 16 -55 58 -46 72 3 4 39
8 80 8 72 0 74 1 74 24 0 42 -18 74 -49 91 -17 8 -31 15 -33 14 -2 0 -18 -5
-37 -12z m71 -34 c10 -9 18 -27 18 -40 0 -22 -3 -23 -65 -23 -36 0 -65 2 -65
5 0 14 31 64 42 68 25 10 52 7 70 -10z"/>
<path d="M3815 3212 c-59 -13 -94 -76 -81 -146 21 -113 177 -117 201 -6 20 89
-43 168 -120 152z m57 -42 c14 -11 28 -31 31 -46 12 -64 -36 -134 -83 -119
-55 18 -72 122 -25 163 32 27 45 28 77 2z"/>
<path d="M4097 3209 c-16 -4 -35 -13 -43 -20 -11 -9 -14 -8 -14 5 0 9 -7 16
-15 16 -13 0 -15 -25 -15 -165 0 -140 2 -165 15 -165 12 0 15 13 15 60 0 57 1
60 19 50 40 -21 87 -12 115 21 14 17 27 40 27 52 7 109 -33 166 -104 146z m52
-45 c36 -45 22 -136 -23 -151 -26 -8 -57 -5 -73 9 -8 6 -13 35 -13 74 0 59 2
64 28 78 39 22 58 19 81 -10z"/>
<path d="M4333 3208 c-49 -13 -73 -51 -73 -115 0 -47 4 -59 29 -84 23 -22 39
-29 69 -29 50 0 72 8 72 26 0 11 -6 11 -27 3 -50 -19 -96 5 -109 55 l-6 26 81
0 c76 0 81 1 81 21 0 37 -30 87 -58 97 -15 5 -41 5 -59 0z m67 -38 c11 -11 20
-29 20 -40 0 -18 -7 -20 -65 -20 -74 0 -83 13 -40 55 29 30 58 32 85 5z"/>
<path d="M4605 3213 c-11 -3 -30 -14 -42 -26 l-23 -20 0 21 c0 13 -6 22 -15
22 -12 0 -15 -19 -15 -115 0 -104 2 -115 18 -115 16 0 18 9 17 78 -1 72 0 79
27 105 16 17 35 27 43 23 10 -4 15 1 15 14 0 11 -1 19 -2 19 -2 -1 -12 -3 -23
-6z"/>
<path d="M3167 3113 c19 -54 38 -106 40 -115 3 -11 15 -18 28 -18 13 0 25 7
28 18 2 9 21 61 40 115 31 84 33 97 18 97 -12 0 -25 -26 -50 -101 -18 -55 -34
-99 -36 -97 -2 2 -18 47 -35 101 -25 74 -37 97 -50 97 -16 0 -14 -10 17 -97z"/>
</g>
</svg>
